<svg width="512" height="512" viewBox="0 0 512 512" fill="none" xmlns="http://www.w3.org/2000/svg">
<path d="M303.182 372V139.273H381.818C400 139.273 414.924 142.379 426.591 148.591C438.258 154.727 446.894 163.174 452.5 173.932C458.106 184.689 460.909 196.924 460.909 210.636C460.909 224.348 458.106 236.508 452.5 247.114C446.894 257.72 438.295 266.053 426.705 272.114C415.114 278.098 400.303 281.091 382.273 281.091H318.636V255.636H381.364C393.788 255.636 403.788 253.818 411.364 250.182C419.015 246.545 424.545 241.394 427.955 234.727C431.439 227.985 433.182 219.955 433.182 210.636C433.182 201.318 431.439 193.174 427.955 186.205C424.47 179.235 418.902 173.856 411.25 170.068C403.598 166.205 393.485 164.273 380.909 164.273H331.364V372H303.182ZM412.727 267.455L470 372H437.273L380.909 267.455H412.727Z" fill="#093FB4"/>
<path d="M249.909 376.091C238.848 376.091 228.811 374.008 219.795 369.841C210.78 365.598 203.621 359.5 198.318 351.545C193.015 343.515 190.364 333.818 190.364 322.455C190.364 312.455 192.333 304.348 196.273 298.136C200.212 291.848 205.477 286.924 212.068 283.364C218.659 279.803 225.932 277.152 233.886 275.409C241.917 273.591 249.985 272.152 258.091 271.091C268.697 269.727 277.295 268.705 283.886 268.023C290.553 267.265 295.402 266.015 298.432 264.273C301.538 262.53 303.091 259.5 303.091 255.182V254.273C303.091 243.061 300.023 234.348 293.886 228.136C287.826 221.924 278.621 218.818 266.273 218.818C253.47 218.818 243.432 221.621 236.159 227.227C228.886 232.833 223.773 238.818 220.818 245.182L195.364 236.091C199.909 225.485 205.97 217.227 213.545 211.318C221.197 205.333 229.53 201.167 238.545 198.818C247.636 196.394 256.576 195.182 265.364 195.182C270.97 195.182 277.409 195.864 284.682 197.227C292.03 198.515 299.114 201.205 305.932 205.295C312.826 209.386 318.545 215.561 323.091 223.818C327.636 232.076 329.909 243.136 329.909 257V372H303.091V348.364H301.727C299.909 352.152 296.879 356.205 292.636 360.523C288.394 364.841 282.75 368.515 275.705 371.545C268.659 374.576 260.061 376.091 249.909 376.091ZM254 352C264.606 352 273.545 349.917 280.818 345.75C288.167 341.583 293.697 336.205 297.409 329.614C301.197 323.023 303.091 316.091 303.091 308.818V284.273C301.955 285.636 299.455 286.886 295.591 288.023C291.803 289.083 287.409 290.03 282.409 290.864C277.485 291.621 272.674 292.303 267.977 292.909C263.356 293.439 259.606 293.894 256.727 294.273C249.758 295.182 243.242 296.659 237.182 298.705C231.197 300.674 226.348 303.667 222.636 307.682C219 311.621 217.182 317 217.182 323.818C217.182 333.136 220.629 340.182 227.523 344.955C234.492 349.652 243.318 352 254 352Z" fill="#093FB4"/>
<path d="M83.3636 267V372H56.5455V197.455H82.4545V224.727H84.7273C88.8182 215.864 95.0303 208.742 103.364 203.364C111.697 197.909 122.455 195.182 135.636 195.182C147.455 195.182 157.795 197.606 166.659 202.455C175.523 207.227 182.417 214.5 187.341 224.273C192.265 233.97 194.727 246.242 194.727 261.091V372H167.909V262.909C167.909 249.197 164.348 238.515 157.227 230.864C150.106 223.136 140.333 219.273 127.909 219.273C119.348 219.273 111.697 221.129 104.955 224.841C98.2879 228.553 93.0227 233.97 89.1591 241.091C85.2955 248.212 83.3636 256.848 83.3636 267Z" fill="#093FB4"/>
</svg>
